<svg aria-hidden="true" style="position: absolute; width: 0; height: 0; overflow: hidden;" version="1.1" xmlns="http://www.w3.org/2000/svg" xmlns:xlink="http://www.w3.org/1999/xlink">
<defs>
<symbol id="icon-folder-plus" viewBox="0 0 32 32">
<path d="M18 8l-4-4h-14v26h32v-22h-14zM22 22h-4v4h-4v-4h-4v-4h4v-4h4v4h4v4z"></path>
</symbol>
<symbol id="icon-download" viewBox="0 0 32 32">
<path d="M16 18l8-8h-6v-8h-4v8h-6zM23.273 14.727l-2.242 2.242 8.128 3.031-13.158 4.907-13.158-4.907 8.127-3.031-2.242-2.242-8.727 3.273v8l16 6 16-6v-8z"></path>
</symbol>
<symbol id="icon-upload" viewBox="0 0 32 32">
<path d="M14 18h4v-8h6l-8-8-8 8h6zM20 13.5v3.085l9.158 3.415-13.158 4.907-13.158-4.907 9.158-3.415v-3.085l-12 4.5v8l16 6 16-6v-8z"></path>
</symbol>
<symbol id="icon-play" viewBox="0 0 32 32">
<path d="M6 4l20 12-20 12z"></path>
</symbol>
<symbol id="icon-stop" viewBox="0 0 32 32">
<path d="M4 4h24v24h-24z"></path>
</symbol>
</defs>
</svg>
