<svg aria-hidden="true" style="position: absolute; width: 0; height: 0; overflow: hidden;" version="1.1" xmlns="http://www.w3.org/2000/svg" xmlns:xlink="http://www.w3.org/1999/xlink">
<defs>
<symbol id="icon-download" viewBox="0 0 32 32">
<path d="M16 18l8-8h-6v-8h-4v8h-6zM23.273 14.727l-2.242 2.242 8.128 3.031-13.158 4.907-13.158-4.907 8.127-3.031-2.242-2.242-8.727 3.273v8l16 6 16-6v-8z"></path>
</symbol>
<symbol id="icon-upload" viewBox="0 0 32 32">
<path d="M14 18h4v-8h6l-8-8-8 8h6zM20 13.5v3.085l9.158 3.415-13.158 4.907-13.158-4.907 9.158-3.415v-3.085l-12 4.5v8l16 6 16-6v-8z"></path>
</symbol>
<symbol id="icon-magic-wand" viewBox="0 0 32 32">
<path d="M8 6l-4-4h-2v2l4 4zM10 0h2v4h-2zM18 10h4v2h-4zM20 4v-2h-2l-4 4 2 2zM0 10h4v2h-4zM10 18h2v4h-2zM2 18v2h2l4-4-2-2zM31.563 27.563l-19.879-19.879c-0.583-0.583-1.538-0.583-2.121 0l-1.879 1.879c-0.583 0.583-0.583 1.538 0 2.121l19.879 19.879c0.583 0.583 1.538 0.583 2.121 0l1.879-1.879c0.583-0.583 0.583-1.538 0-2.121zM15 17l-6-6 2-2 6 6-2 2z"></path>
</symbol>
<symbol id="icon-bin" viewBox="0 0 32 32">
<path d="M4 10v20c0 1.1 0.9 2 2 2h18c1.1 0 2-0.9 2-2v-20h-22zM10 28h-2v-14h2v14zM14 28h-2v-14h2v14zM18 28h-2v-14h2v14zM22 28h-2v-14h2v14z"></path>
<path d="M26.5 4h-6.5v-2.5c0-0.825-0.675-1.5-1.5-1.5h-7c-0.825 0-1.5 0.675-1.5 1.5v2.5h-6.5c-0.825 0-1.5 0.675-1.5 1.5v2.5h26v-2.5c0-0.825-0.675-1.5-1.5-1.5zM18 4h-6v-1.975h6v1.975z"></path>
</symbol>
<symbol id="icon-play3" viewBox="0 0 32 32">
<path d="M6 4l20 12-20 12z"></path>
</symbol>
<symbol id="icon-stop2" viewBox="0 0 32 32">
<path d="M4 4h24v24h-24z"></path>
</symbol>
</defs>
</svg>
